<?xml version="1.0" encoding="UTF-8" standalone="no"?>
<!-- Created with Inkscape (http://www.inkscape.org/) -->

<svg
   width="120px"
   height="120px"
   viewBox="0 0 120 120"
   version="1.1"
   id="SVGRoot"
   sodipodi:docname="down_bullet.svg"
   inkscape:version="1.1.2 (0a00cf5339, 2022-02-04)"
   xmlns:inkscape="http://www.inkscape.org/namespaces/inkscape"
   xmlns:sodipodi="http://sodipodi.sourceforge.net/DTD/sodipodi-0.dtd"
   xmlns="http://www.w3.org/2000/svg"
   xmlns:svg="http://www.w3.org/2000/svg">
  <sodipodi:namedview
     id="namedview212"
     pagecolor="#ffffff"
     bordercolor="#666666"
     borderopacity="1.0"
     inkscape:pageshadow="2"
     inkscape:pageopacity="0.0"
     inkscape:pagecheckerboard="0"
     inkscape:document-units="px"
     showgrid="false"
     inkscape:zoom="7.9392817"
     inkscape:cx="81.997343"
     inkscape:cy="100.00905"
     inkscape:window-width="1362"
     inkscape:window-height="729"
     inkscape:window-x="0"
     inkscape:window-y="18"
     inkscape:window-maximized="1"
     inkscape:current-layer="layer1" />
  <defs
     id="defs207">
    <inkscape:path-effect
       effect="powerclip"
       id="path-effect636"
       is_visible="true"
       lpeversion="1"
       inverse="true"
       flatten="false"
       hide_clip="false"
       message="Use fill-rule evenodd on &lt;b&gt;fill and stroke&lt;/b&gt; dialog if no flatten result after convert clip to paths." />
    <clipPath
       clipPathUnits="userSpaceOnUse"
       id="clipPath632">
      <circle
         style="display:none;fill:#e6e6e6"
         id="circle634"
         cx="60"
         cy="60"
         r="20"
         d="M 80,60 A 20,20 0 0 1 60,80 20,20 0 0 1 40,60 20,20 0 0 1 60,40 20,20 0 0 1 80,60 Z" />
      <path
         id="lpe_path-effect636"
         style="fill:#e6e6e6"
         class="powerclip"
         d="M 25,25 H 95 V 95 H 25 Z M 80,60 A 20,20 0 0 0 60,40 20,20 0 0 0 40,60 20,20 0 0 0 60,80 20,20 0 0 0 80,60 Z" />
    </clipPath>
  </defs>
  <g
     inkscape:label="Layer 1"
     inkscape:groupmode="layer"
     id="layer1">
    <path
       style="fill:#000000"
       id="path298"
       clip-path="url(#clipPath632)"
       inkscape:path-effect="#path-effect636"
       sodipodi:type="arc"
       sodipodi:cx="60"
       sodipodi:cy="60"
       sodipodi:rx="30"
       sodipodi:ry="30"
       d="M 90,60 A 30,30 0 0 1 60,90 30,30 0 0 1 30,60 30,30 0 0 1 60,30 30,30 0 0 1 90,60 Z" />
    <rect
       style="fill:#000000;stroke-width:1.23264"
       id="rect662"
       width="38.323452"
       height="10"
       x="83.071297"
       y="-65"
       transform="rotate(90)" />
  </g>
</svg>
